<!DOCTYPE svg PUBLIC "-//W3C//DTD SVG 1.1//EN" "http://www.w3.org/Graphics/SVG/1.1/DTD/svg11.dtd">
<!-- Uploaded to: SVG Repo, www.svgrepo.com, Transformed by: SVG Repo Mixer Tools -->
<svg width="239px" height="239px" viewBox="0 0 1024 1024" class="icon" version="1.1" xmlns="http://www.w3.org/2000/svg" fill="#000000">
<g id="SVGRepo_bgCarrier" stroke-width="0"/>
<g id="SVGRepo_tracerCarrier" stroke-linecap="round" stroke-linejoin="round"/>
<g id="SVGRepo_iconCarrier">
<path d="M521.264 474.672a63.488 63.488 0 0 1-23.368-4.464c-33.216-13.104-49.664-51.04-36.752-84.736 0.416-1.08 41.728-108.904 65.04-173.944 4.432-12.376 5.32-20.232 5.256-23.848-4.464-2.56-19.76-9.232-57.832-9.232H294.848c-38.072 0-53.376 6.672-57.832 9.232-0.064 3.616 0.824 11.472 5.256 23.84 23.32 65.04 64.632 172.864 65.04 173.944 12.912 33.696-3.544 71.632-36.752 84.736-33.192 13.096-70.6-3.584-83.52-37.28-1.712-4.472-42.24-110.248-66.04-176.664-25.304-70.6-8.808-117.016 9.488-143.528 30.288-43.864 86.44-62.064 166.752-62.064H470.72c80.312 0 136.952 18.192 167.248 62.064 18.296 26.512 34.8 72.928 9.488 143.528-23.8 66.408-64.328 172.192-66.048 176.664-9.92 25.904-34.32 41.752-60.144 41.752z" fill="#B9E3ED"/>
<path d="M247.208 490.672c-32.992 0-63.168-20.896-75.104-52.016-1.712-4.464-42.176-110.056-66.168-177-27.592-76.984-9.04-128.416 11.384-158.016 32.048-46.408 90.896-68.976 179.92-68.976H470.72c89.344 0 148.36 22.56 180.416 68.968 20.432 29.6 38.984 81.032 11.384 158.024-23.936 66.784-64.456 172.52-66.168 176.992-11.928 31.112-42.104 52.016-75.088 52.016a79.312 79.312 0 0 1-29.248-5.584c-41.28-16.288-61.832-63.544-45.816-105.344 0.408-1.056 41.688-108.808 64.92-173.616 1.096-3.056 1.912-5.696 2.52-7.96-7.616-1.84-20.248-3.72-40.032-3.72H294.848c-19.792 0-32.424 1.88-40.032 3.72 0.608 2.256 1.424 4.904 2.52 7.96 23.232 64.8 64.512 172.552 64.92 173.6 16.024 41.816-4.528 89.064-45.816 105.352a79.04 79.04 0 0 1-29.232 5.6z m50.024-424c-78.8 0-127.6 17.52-153.584 55.152-16.168 23.424-30.608 64.832-7.592 129.04 23.872 66.616 64.216 171.888 65.92 176.336 7.336 19.12 25.08 31.48 45.216 31.472 5.976 0 11.856-1.128 17.488-3.344 25.032-9.872 37.448-38.64 27.68-64.128-0.4-1.04-41.816-109.144-65.16-174.272-5.56-15.52-6.264-25.16-6.184-29.52a15.984 15.984 0 0 1 8.032-13.6c7.384-4.24 25.76-11.352 65.8-11.352h178.76c40.024 0 58.4 7.112 65.792 11.352a16 16 0 0 1 8.032 13.6c0.08 4.36-0.624 14-6.184 29.52-23.352 65.128-64.768 173.232-65.168 174.288-9.768 25.472 2.648 54.24 27.68 64.112a47.424 47.424 0 0 0 17.504 3.344c20.136 0 37.88-12.352 45.208-31.472 1.712-4.456 42.112-109.872 65.928-176.336 23.016-64.208 8.576-105.616-7.592-129.04-25.632-37.112-76.032-55.152-154.08-55.152H297.232z" fill="#324654"/>
<path d="M911.088 876.168c0 45.008-168.08 78.504-378.68 78.504-210.608 0-384-33.496-384-78.504s170.728-81.504 381.336-81.504c210.6 0.008 381.344 36.496 381.344 81.504z" fill="#B8CBCD"/>
<path d="M386.968 556.184m-287.28 0a287.28 287.28 0 1 0 574.56 0 287.28 287.28 0 1 0-574.56 0Z" fill="#B9E3ED"/>
<path d="M386.968 859.472c-167.232 0-303.28-136.056-303.28-303.288s136.048-303.288 303.28-303.288 303.28 136.056 303.28 303.288-136.048 303.288-303.28 303.288z m0-574.568c-149.584 0-271.28 121.696-271.28 271.288 0 149.584 121.696 271.288 271.28 271.288 149.584 0 271.28-121.696 271.28-271.288S536.56 284.904 386.968 284.904z" fill="#324654"/>
<path d="M207.576 801.168a23.92 23.92 0 0 1-16.968-7.024C131.776 735.32 99.272 657.6 99.072 575.304c-0.2-82.432 32.048-160.192 90.816-218.96 121.608-121.608 311.816-121.904 433.032-0.704a24 24 0 1 1-33.944 33.944c-102.176-102.184-262.568-101.864-365.144 0.696-49.664 49.672-76.928 115.336-76.76 184.904 0.168 69.52 27.68 135.232 77.472 185.016a24 24 0 0 1-16.968 40.968z" fill="#FFFFFF"/>
<path d="M386.968 867.472c-171.64 0-311.28-139.64-311.28-311.288 0-72.472 21.656-144.2 58.424-195.08a6247.44 6247.44 0 0 1-35.704-96.744c-28.736-80.176-9.16-134.12 12.328-165.256 33.656-48.736 94.664-72.432 186.504-72.432H470.72c92.168 0 153.336 23.688 187 72.424 21.496 31.144 41.072 85.088 12.336 165.272a7214.104 7214.104 0 0 1-37.296 100.92 311.304 311.304 0 0 1 65.496 190.904c-0.008 171.64-139.648 311.28-311.288 311.28z m-89.736-792.8c-75.936 0-122.648 16.424-147 51.696-15.104 21.88-28.512 60.776-6.648 121.792 10.808 30.16 23.192 63.616 40.144 108.488a24 24 0 0 1-3.888 23.696c-35.168 42.896-56.152 108.632-56.152 175.84 0 145.176 118.112 263.288 263.28 263.288s263.28-118.112 263.28-263.288a263.28 263.28 0 0 0-63.064-170.864 24 24 0 0 1-4.208-24.064c17.808-47.176 31.904-85.224 41.888-113.088 21.872-61.016 8.456-99.912-6.648-121.8-24.024-34.784-72.272-51.696-147.496-51.696H297.232z m-27.904 234.424a24.008 24.008 0 0 1-22.472-15.576 5142.592 5142.592 0 0 1-27.168-73.888c-5.696-15.888-6.768-26.368-6.656-32.36a24 24 0 0 1 12.048-20.4c9.864-5.664 27.544-12.2 67.344-12.2h184c39.784 0 57.104 6.528 66.976 12.192a24.016 24.016 0 0 1 12.056 20.408c0.104 5.992-0.968 16.472-6.656 32.352a5122.128 5122.128 0 0 1-26.248 71.408 23.984 23.984 0 0 1-31.68 13.752c-27.744-11.512-66.608-18.12-106.632-18.12-38.816 0-74.248 6.872-105.304 20.424a23.96 23.96 0 0 1-9.608 2.008z m-4.136-104.752c5.712 15.92 11.344 31.336 18.168 49.728 30.984-10.232 64.8-15.4 100.864-15.4 36.616 0 71.776 4.736 101.552 13.536a4533.336 4533.336 0 0 0 17.48-47.856c-7.04-1.056-16.712-1.896-29.656-1.896H294.848c-12.944 0-22.616 0.84-29.656 1.888z" fill="#324654"/>
<path d="M386.968 859.472c-167.232 0-303.28-136.056-303.28-303.288s136.048-303.288 303.28-303.288 303.28 136.056 303.28 303.288-136.048 303.288-303.28 303.288z m0-574.568c-149.584 0-271.28 121.696-271.28 271.288 0 149.584 121.696 271.288 271.28 271.288 149.584 0 271.28-121.696 271.28-271.288S536.56 284.904 386.968 284.904z" fill="#324654"/>
<path d="M353.88 852.088c-71.376 0.008-140.976-27.736-196.936-83.696a23.984 23.984 0 0 1 0-33.936 23.984 23.984 0 0 1 33.936 0c98.16 98.152 247.944 90.856 356.16-17.352 109.848-109.856 119.32-253.824 23.032-350.112a23.984 23.984 0 0 1 0-33.936 23.984 23.984 0 0 1 33.936 0c116.272 116.272 106.8 288.152-23.024 417.992-67.144 67.136-148.216 101.04-227.104 101.04z" fill="#324654"/>
<path d="M404.408 690.672a16 16 0 0 1-16-16v-48h-80a16 16 0 0 1-13.528-24.544l96-152a16 16 0 0 1 29.528 8.536v136h32a16 16 0 0 1 0 32h-32v48a16 16 0 0 1-16 16.008z m-66.976-96h50.976V513.968l-50.976 80.704z" fill="#324654"/>
<path d="M665.16 640.472A50.936 50.936 0 0 1 617.696 608c-1.264-3.256-31.264-80.416-48.88-128.872-19.184-52.768-6.56-87.624 7.408-107.56 23.048-32.904 63.664-48.896 124.184-48.896h132.224c60.52 0 101.136 15.992 124.184 48.896 13.968 19.944 26.592 54.792 7.408 107.56-17.616 48.456-47.608 125.616-48.88 128.872a50.912 50.912 0 0 1-94.896-36.904c0.312-0.792 30.856-79.376 48.088-126.76 2.608-7.168 3.4-11.808 3.624-14.408-4.352-1.936-19.744-3.256-43.744-3.256h-128c-24 0-35.168 1.328-39.52 3.256 0.216 2.6 1.016 7.24 3.624 14.408 17.232 47.4 47.776 125.968 48.08 126.76a50.912 50.912 0 0 1-47.44 69.376z" fill="#B2EDA6"/>
<path d="M867.888 656.48a66.744 66.744 0 0 1-24.248-4.56c-34.384-13.384-51.488-52.232-38.112-86.616 0.296-0.76 28.984-74.56 46.368-122.08-5.6-0.312-13.232-0.544-23.496-0.544h-128c-8.296 0-14.584 0.168-19.328 0.4 15.272 41.744 39.056 103.24 46.176 121.576 13.624 35.024-3.464 73.88-37.856 87.256a66.704 66.704 0 0 1-24.24 4.56 66.52 66.52 0 0 1-62.368-42.664c-3.288-8.472-32.048-82.56-49-129.208-21.544-59.24-6.816-99.152 9.336-122.208 26.264-37.496 71.168-55.712 137.288-55.712h132.224c66.12 0 111.032 18.224 137.288 55.712 16.144 23.056 30.88 62.968 9.336 122.208-17.944 49.36-48.704 128.44-49.008 129.208a66.48 66.48 0 0 1-62.36 42.672zM700.408 410.672h128c39.808 0 47.384 3.368 50.24 4.64a16 16 0 0 1 9.448 15.96c-0.44 5.248-1.968 11.48-4.528 18.528-17.288 47.536-47.912 126.32-48.216 127.096a34.96 34.96 0 0 0 32.536 47.576 34.68 34.68 0 0 0 32.536-22.272c0.312-0.792 30.928-79.512 48.76-128.544 16.832-46.304 6.312-76.08-5.48-92.912-19.832-28.312-56.168-42.072-111.08-42.072H700.408c-54.912 0-91.248 13.76-111.08 42.072-11.792 16.832-22.312 46.616-5.48 92.912 16.848 46.328 45.488 120.12 48.696 128.384 5.328 13.688 18.104 22.432 32.608 22.432a34.96 34.96 0 0 0 32.52-47.576c-7.648-19.712-32.944-85.104-48.208-127.096-2.56-7.04-4.088-13.272-4.528-18.536a16 16 0 0 1 9.448-15.96c5.424-2.4 14.744-4.632 46.024-4.632z" fill="#3C663E"/>
<path d="M765.808 707.8m-198.872 0a198.872 198.872 0 1 0 397.744 0 198.872 198.872 0 1 0-397.744 0Z" fill="#B2EDA6"/>
<path d="M765.808 922.672c-118.48 0-214.872-96.392-214.872-214.872 0-118.488 96.392-214.872 214.872-214.872 118.488 0 214.88 96.392 214.88 214.872 0 118.48-96.4 214.872-214.88 214.872z m0-397.752c-100.832 0-182.872 82.04-182.872 182.872s82.032 182.872 182.872 182.872c100.84 0 182.88-82.04 182.88-182.872s-82.04-182.872-182.88-182.872z" fill="#3C663E"/>
<path d="M911.088 571.992c53.6 95.68 47.648 175.184-30.016 252.848-77.664 77.672-203.584 77.672-281.248 0" fill="#B2EDA6"/>
<path d="M740.448 899.088c-57.392 0-111.352-22.352-151.936-62.936a16 16 0 1 1 22.624-22.624 181.696 181.696 0 0 0 129.312 53.56 181.696 181.696 0 0 0 129.312-53.56c70.168-70.168 78.608-142.248 27.368-233.712a16.008 16.008 0 0 1 27.928-15.64c58.624 104.656 48.24 191.08-32.664 271.984-40.592 40.576-94.552 62.928-151.944 62.928z" fill="#3C663E"/>
<path d="M650.632 883.648a15.936 15.936 0 0 1-11.312-4.688c-40.584-40.584-62.936-94.544-62.936-151.936 0-57.392 22.352-111.352 62.936-151.936 40.648-40.656 93.224-63.296 148.024-63.744h1.656c54.504 0 106.52 22.024 146.632 62.144a16 16 0 1 1-22.624 22.624c-34.4-34.4-78.952-53.16-125.4-52.76-46.352 0.376-90.984 19.688-125.664 54.368a181.696 181.696 0 0 0-53.56 129.312 181.696 181.696 0 0 0 53.56 129.312 16 16 0 0 1-11.312 27.304z" fill="#FFFFFF"/>
<path d="M810.528 810.672H721.112a16 16 0 0 1-16-16c0-25.312 22.184-45.632 45.68-67.144 18.296-16.76 39.032-35.752 39.032-50.504 0-19.2-16.168-26.352-26.352-26.352-11.6 0-31.064 4.032-31.064 31.056a16 16 0 0 1-32 0c0-43.56 31.672-63.056 63.064-63.056 28.68 0 58.352 21.832 58.352 58.352 0 28.84-25.128 51.856-49.424 74.104-9.44 8.648-20.272 18.568-27.416 27.544h65.544a16 16 0 0 1 0 32z" fill="#3C663E"/>
<path d="M765.808 930.672c-125.016 0-226.728-99.984-226.728-222.872 0-47.008 15.408-98.712 39.92-135.848-2.216-5.656-4.552-11.56-6.968-17.656-8.288-20.96-17.68-44.72-25.768-66.968-22.712-62.472-6.936-104.92 10.304-129.528 27.864-39.784 74.92-59.128 143.84-59.128h132.224c68.92 0 115.976 19.336 143.84 59.128 17.24 24.608 33.024 67.056 10.304 129.536a5164.288 5164.288 0 0 1-32.072 85.36c22.432 35.32 36.04 85.648 36.04 135.104-0.008 122.888-100.912 222.872-224.936 222.872z m-65.4-584c-52.112 0-86.304 12.648-104.528 38.664-15.344 21.904-16.904 51.504-4.504 85.592 7.856 21.616 17.128 45.048 25.296 65.72 4.24 10.712 8.256 20.88 11.8 30.056a24.008 24.008 0 0 1-3.472 23.408c-22.68 29.048-37.92 76.344-37.92 117.688 0 94.792 81.848 174.872 178.728 174.872 97.56 0 176.936-78.448 176.936-174.872 0-44.304-13.36-90.32-34.04-117.224a23.984 23.984 0 0 1-3.36-23.264 5426.312 5426.312 0 0 0 36.328-96.376c12.392-34.088 10.832-63.688-4.504-85.592-18.224-26.016-52.416-38.664-104.528-38.664H700.408z m141.544 192.576c-3 0-6-0.56-8.84-1.688-17.424-6.904-40.696-10.56-67.296-10.56-28.76 0-50.52 3.024-66.536 9.248a24.032 24.032 0 0 1-31.112-13.792 4324.984 4324.984 0 0 1-26.208-69.928c-2.808-7.696-4.48-14.632-4.976-20.592a24 24 0 0 1 14.16-23.944c7.192-3.2 18.328-5.328 49.272-5.328h128c41.504 0 49.6 3.6 53.488 5.328a24 24 0 0 1 14.168 23.944c-0.504 5.952-2.176 12.88-4.984 20.592a4459.76 4459.76 0 0 1-26.72 71.296 23.992 23.992 0 0 1-22.416 15.424z m-76.144-60.248c16.824 0 39.36 1.328 61.728 6.672 4.872-12.848 9.104-24.16 13.064-34.88-3.552-0.08-7.6-0.128-12.192-0.128h-128c-2.92 0-5.576 0.016-7.992 0.056 3.84 10.408 7.928 21.32 12.696 33.888 17.224-3.76 37.296-5.608 60.696-5.608z" fill="#3C663E"/>
<path d="M765.808 922.672c-118.48 0-214.872-96.392-214.872-214.872 0-118.488 96.392-214.872 214.872-214.872 118.488 0 214.88 96.392 214.88 214.872 0 118.48-96.4 214.872-214.88 214.872z m0-397.752c-100.832 0-182.872 82.04-182.872 182.872s82.032 182.872 182.872 182.872c100.84 0 182.88-82.04 182.88-182.872s-82.04-182.872-182.88-182.872z" fill="#3C663E"/>
</g>
</svg>